<mxfile host="app.diagrams.net" modified="2023-06-27T16:45:47.606Z" agent="Mozilla/5.0 (Windows NT 10.0; Win64; x64) AppleWebKit/537.36 (KHTML, like Gecko) Chrome/114.0.0.0 Safari/537.36" version="21.5.1" etag="ZDVID9NtQP1SVENCfyPO" type="github">
  <diagram name="Page-1" id="pB2exlWt6QaFZlM6VGMe">
    <mxGraphModel>
      <root>
        <mxCell id="0" />
        <mxCell id="1" parent="0" />
      </root>
    </mxGraphModel>
  </diagram>
</mxfile>
